<svg width="82" height="41" viewBox="0 0 82 41" fill="none" xmlns="http://www.w3.org/2000/svg">
<g clip-path="url(#clip0_997_3219)">
<g clip-path="url(#clip1_997_3219)">
<path d="M32.3571 10.6339V40.4956H40.7751V0.5C35.7931 0.883234 31.3685 1.85874 27.4316 3.30022V12.5588C29.1605 11.7967 30.737 11.1391 32.3571 10.6339Z" fill="#1548E6"/>
<path d="M43.819 33.4494V40.4913L72.3569 40.4826V32.1691H56.4614C60.3286 29.3776 63.7515 26.9911 66.2861 24.3999C69.4565 21.1598 71.6426 18.4293 71.6426 13.1729C71.6426 5.67369 66.7303 0.504395 57.3628 0.504395C50.0292 0.504395 44.0106 5.20772 43.6056 13.5038C43.5795 14.0743 43.6013 14.6666 43.6013 15.2807H51.9235C51.9061 14.6753 51.8844 14.0831 51.9366 13.5038C52.2458 10.2159 54.1881 7.79454 57.5762 7.79454C62.1097 7.79454 63.2899 11.0912 63.2899 13.1032C63.2899 16.5087 61.4913 18.7951 58.874 21.5256C56.2567 24.2562 48.4744 30.1527 43.819 33.4538V33.4494Z" fill="#1548E6"/>
<path d="M24.466 14.022V4.47605C19.0267 6.92352 14.0403 9.98503 8.50082 15.6159V0.5H0V40.5H8.49646L8.50953 27.5049C9.08438 26.6296 9.71149 25.8283 10.3691 24.9921L20.7599 40.5H29.9314L16.0697 19.9447C19.362 16.966 21.6091 15.69 24.4616 14.022H24.466Z" fill="#1548E6"/>
<path d="M73.9253 32.1777H76.6993V32.8527H75.7064V35.4831H74.9182V32.8527H73.9209V32.1777H73.9253Z" fill="#1548E6"/>
<path d="M78.2589 32.1777L78.9992 34.647L79.0297 34.8168L79.0602 34.6513L79.8179 32.1821H80.9067V35.4831H80.1445V33.2011L80.1663 32.7656L80.0618 33.2099L79.3563 35.4831H78.69L77.9845 33.2142L77.8843 32.7831L77.9061 33.2011V35.4831H77.1396V32.1777H78.2545H78.2589Z" fill="#1548E6"/>
</g>
</g>
<defs>
<clipPath id="clip0_997_3219">
<rect width="82" height="40" fill="white" transform="translate(0 0.5)"/>
</clipPath>
<clipPath id="clip1_997_3219">
<rect width="81.6667" height="40" fill="white" transform="translate(0 0.5)"/>
</clipPath>
</defs>
</svg>
