<svg xmlns="http://www.w3.org/2000/svg" width="62" height="23" viewBox="0 0 62 23" fill="none"><g clip-path="url(#clip0_344_1776)"><path d="M7.25229 12.4314C7.25229 14.1162 7.20892 15.7868 7.27339 17.4526C7.29917 18.1163 7.79851 18.5639 8.46078 18.6672C8.90033 18.7349 8.9859 18.9427 8.97535 19.3369C8.95308 20.206 8.95542 21.0775 8.97535 21.9466C8.98473 22.3574 8.8851 22.5498 8.4221 22.5462C5.88321 22.526 3.34433 22.5284 0.805446 22.545C0.386988 22.5474 0.256879 22.3954 0.263912 21.9941C0.280322 21.0644 0.274461 20.1348 0.266256 19.2063C0.263912 18.9059 0.349479 18.7634 0.678854 18.6957C1.59899 18.5057 2.01042 17.9845 2.01276 17.0323C2.02097 13.3931 2.02097 9.75514 2.01276 6.11598C2.01042 5.16731 1.62244 4.69119 0.672993 4.46204C0.361201 4.38723 0.258051 4.24357 0.261568 3.93486C0.274461 2.98619 0.274461 2.03632 0.261568 1.08765C0.258051 0.726701 0.352995 0.554539 0.75856 0.558101C3.45334 0.572349 6.14929 0.577098 8.84407 0.554539C9.29418 0.550977 9.39264 0.825249 9.52626 1.13633C10.7265 3.91705 11.9292 6.69659 13.1318 9.47612C13.1939 9.62097 13.2654 9.76108 13.3264 9.90593C13.378 10.0294 13.4577 10.1018 13.5948 10.0674C13.7132 10.0377 13.7296 9.92493 13.7296 9.83232C13.7214 8.4099 13.8468 6.98036 13.664 5.56744C13.5866 4.97021 13.1201 4.54871 12.4918 4.48697C12.0429 4.44304 11.9737 4.23288 11.9866 3.83631C12.0183 2.90782 12.0171 1.97814 12.0065 1.04847C12.003 0.698205 12.1097 0.558101 12.4742 0.560475C15.0131 0.572349 17.552 0.572349 20.0909 0.560475C20.4601 0.558101 20.5644 0.712453 20.5609 1.05203C20.5504 2.02089 20.5527 2.98975 20.5609 3.95861C20.5633 4.23169 20.4882 4.38723 20.1952 4.46085C19.1356 4.728 18.8121 5.15187 18.8109 6.25253C18.8074 11.4138 18.8097 16.5752 18.8097 21.7377C18.8097 22.272 18.5405 22.5391 18.0021 22.5391C16.1267 22.5391 14.2524 22.513 12.3781 22.5545C11.8284 22.5664 11.6033 22.3622 11.3994 21.8801C10.1053 18.8192 8.77843 15.7713 7.45741 12.7223C7.41522 12.6249 7.41404 12.4872 7.25111 12.4326L7.25229 12.4314Z" fill="#0061AF"></path><path d="M52.0802 0.565284C54.9309 0.565284 57.7827 0.57597 60.6334 0.555786C61.1233 0.552224 61.264 0.705389 61.2605 1.19694C61.2394 3.78769 61.2406 6.37844 61.2605 8.968C61.264 9.44175 61.1081 9.58779 60.651 9.57592C59.5972 9.5498 58.5411 9.54742 57.4873 9.57592C56.9915 9.58898 56.784 9.45362 56.8086 8.91101C56.8497 8.00271 56.8227 7.09203 56.818 6.18253C56.818 5.94744 56.8262 5.71116 56.7254 5.48438C56.573 5.14243 56.3843 4.85035 55.967 4.84916C55.524 4.84798 55.3036 5.15549 55.1805 5.52357C55.1008 5.76103 55.0727 6.02699 55.0727 6.27989C55.0657 9.81932 55.0657 13.3599 55.0692 16.8994C55.0703 17.9442 55.4466 18.4393 56.4699 18.7029C56.7325 18.7706 56.8251 18.8763 56.8239 19.1387C56.8157 20.1277 56.8122 21.1167 56.8251 22.1046C56.8297 22.4513 56.6809 22.5415 56.3656 22.5404C53.5149 22.5332 50.6631 22.532 47.8124 22.5404C47.4678 22.5404 47.3166 22.4382 47.3236 22.0678C47.34 21.1191 47.3423 20.1693 47.3236 19.2206C47.3166 18.8715 47.442 18.7623 47.776 18.6898C48.6399 18.5034 49.0748 17.9395 49.076 17.0478C49.083 13.4086 49.0795 9.77064 49.0795 6.13148C49.0795 6.0923 49.0795 6.05193 49.0795 6.01275C49.042 5.32409 48.702 4.86104 48.2238 4.84679C47.7538 4.83373 47.3623 5.29916 47.3423 5.98306C47.3142 6.95073 47.3072 7.92197 47.3423 8.88964C47.3599 9.39307 47.238 9.59848 46.6988 9.57948C45.6263 9.5403 44.5503 9.55098 43.4766 9.57592C43.0335 9.5866 42.9046 9.42156 42.9069 8.98938C42.921 6.33926 42.9233 3.68914 42.9046 1.04022C42.9022 0.627025 43.0499 0.555786 43.4133 0.55816C46.3038 0.571221 49.1943 0.565284 52.0837 0.565284H52.0802Z" fill="#0061AF"></path><path d="M37.0391 0.565291C38.4246 0.565291 39.8113 0.578352 41.1968 0.55698C41.6351 0.549856 41.8332 0.651966 41.8145 1.14827C41.7781 2.07557 41.7934 3.00644 41.8098 3.93493C41.8145 4.24838 41.7055 4.38493 41.4007 4.46091C40.4067 4.70907 40.0516 5.18518 40.0516 6.22528C40.0492 9.78371 40.0504 13.3409 40.0516 16.8994C40.0516 17.968 40.4102 18.4464 41.437 18.7017C41.6879 18.7647 41.8098 18.8525 41.8074 19.1244C41.7992 20.1123 41.7992 21.1013 41.8074 22.0892C41.8098 22.4204 41.6703 22.5415 41.348 22.5404C38.4785 22.5344 35.6091 22.532 32.7397 22.5415C32.3997 22.5415 32.3001 22.4026 32.3036 22.082C32.3142 21.0942 32.3142 20.1051 32.3036 19.1173C32.3013 18.8466 32.4056 18.7552 32.6658 18.697C33.6668 18.469 34.0583 17.9501 34.0583 16.8922C34.0607 13.354 34.0607 9.81576 34.0583 6.27753C34.0583 5.18162 33.6833 4.69719 32.626 4.44904C32.3986 4.39561 32.2989 4.32556 32.3025 4.07147C32.3165 3.04324 32.3224 2.01502 32.3025 0.98798C32.2943 0.57004 32.524 0.560542 32.8252 0.561729C34.2306 0.567666 35.6361 0.564104 37.0415 0.564104L37.0391 0.565291Z" fill="#0061AF"></path><path d="M26.3889 22.538C25.0222 22.538 23.6543 22.5166 22.2887 22.5498C21.7847 22.5617 21.6487 22.38 21.664 21.9016C21.6921 20.9932 21.6815 20.0826 21.6675 19.1731C21.6628 18.8703 21.7097 18.7338 22.0672 18.7053C22.9885 18.634 23.4222 18.1282 23.4234 17.1926C23.4281 13.5143 23.4281 9.83712 23.4234 6.15878C23.4222 5.18279 22.9908 4.6295 22.059 4.46446C21.7226 4.40509 21.6628 4.26617 21.6687 3.96459C21.6839 3.01592 21.6874 2.06606 21.6687 1.11738C21.6605 0.716064 21.7824 0.558149 22.2008 0.559337C25.0316 0.573585 27.8635 0.57121 30.6954 0.559337C31.0435 0.558149 31.1854 0.656698 31.1783 1.02596C31.1608 2.01381 31.1643 3.00286 31.1783 3.9919C31.183 4.28755 31.0728 4.39559 30.7915 4.45971C29.8362 4.6758 29.4236 5.17329 29.4201 6.16115C29.4084 9.78013 29.4084 13.3979 29.4201 17.0169C29.4224 17.9418 29.8714 18.5022 30.761 18.6898C31.0775 18.7563 31.1818 18.8679 31.1772 19.1838C31.1631 20.1324 31.1596 21.0823 31.1783 22.031C31.1865 22.418 31.0506 22.5487 30.6684 22.5451C29.2431 22.5285 27.8178 22.538 26.3924 22.538H26.3889Z" fill="#0061AF"></path></g><defs><clipPath id="clip0_344_1776"><rect width="61" height="22" fill="white" transform="translate(0.261719 0.554596)"></rect></clipPath></defs></svg>